<svg width="86" height="18" viewBox="0 0 86 18" fill="none" xmlns="http://www.w3.org/2000/svg">
<path d="M35.7443 4.18181C35.6676 3.53409 35.3565 3.03125 34.8111 2.67329C34.2656 2.31534 33.5966 2.13636 32.804 2.13636C32.2244 2.13636 31.7173 2.23011 31.2826 2.41761C30.8523 2.60511 30.5156 2.86292 30.2727 3.19105C30.0341 3.51917 29.9148 3.89204 29.9148 4.30966C29.9148 4.65909 29.9978 4.95951 30.164 5.21093C30.3345 5.45809 30.5518 5.66477 30.816 5.83096C31.0802 5.99289 31.3572 6.12713 31.647 6.23366C31.9368 6.33593 32.2031 6.41903 32.446 6.48295L33.7755 6.84091C34.1165 6.93039 34.4957 7.05397 34.9133 7.21164C35.3352 7.36932 35.7379 7.58451 36.1214 7.85724C36.5092 8.12571 36.8288 8.47088 37.0802 8.89275C37.3317 9.31463 37.4574 9.83238 37.4574 10.446C37.4574 11.1534 37.272 11.7926 36.9013 12.3636C36.5348 12.9347 35.9978 13.3885 35.2905 13.7251C34.5873 14.0618 33.7329 14.2301 32.7273 14.2301C31.7898 14.2301 30.978 14.0788 30.2919 13.7763C29.6101 13.4737 29.0731 13.0518 28.6811 12.5107C28.2933 11.9695 28.0738 11.3409 28.0227 10.625H29.6591C29.7017 11.1193 29.8679 11.5284 30.1576 11.8523C30.4517 12.1719 30.8224 12.4105 31.2699 12.5682C31.7216 12.7216 32.2074 12.7983 32.7273 12.7983C33.3324 12.7983 33.8757 12.7003 34.3572 12.5043C34.8388 12.304 35.2201 12.027 35.5014 11.6733C35.7826 11.3153 35.9233 10.8977 35.9233 10.4205C35.9233 9.98579 35.8018 9.6321 35.5589 9.35937C35.316 9.08665 34.9964 8.86505 34.6001 8.6946C34.2038 8.52414 33.7755 8.375 33.3153 8.24716L31.7045 7.78693C30.6818 7.49289 29.8721 7.07315 29.2755 6.5277C28.679 5.98224 28.3807 5.26846 28.3807 4.38636C28.3807 3.65341 28.5788 3.0142 28.9751 2.46875C29.3757 1.91903 29.9126 1.49289 30.5859 1.19034C31.2635 0.883519 32.0199 0.73011 32.8551 0.73011C33.6988 0.73011 34.4488 0.881389 35.1051 1.18395C35.7613 1.48224 36.2812 1.89133 36.6647 2.41122C37.0525 2.9311 37.2571 3.5213 37.2784 4.18181H35.7443Z" fill="#ff385c"/>
<path d="M0.998779 8.83L6.58878 14.42L7.99878 13L2.41878 7.42L0.998779 8.83Z" fill="#ff385c"/>
<path d="M22.8288 1L12.2488 11.59L8.08878 7.42L6.65878 8.83L12.2488 14.42L24.2488 2.42L22.8288 1Z" fill="#ff385c"/>
<path d="M18.5888 2.42L17.1788 1L10.8288 7.35L12.2488 8.76L18.5888 2.42Z" fill="#ff385c"/>
<path d="M44.8705 13.6101C45.3563 13.2607 45.7143 12.8366 45.9444 12.3381H46.0467V14H47.5552V4.18181H46.0467V9.98579C46.0467 10.5994 45.9124 11.1044 45.644 11.5007C45.3798 11.897 45.0516 12.191 44.6596 12.3828C44.2718 12.5746 43.8904 12.6705 43.5154 12.6705C42.889 12.6705 42.3734 12.4574 41.9686 12.0312C41.568 11.6051 41.3677 11.0341 41.3677 10.3182V4.18181H39.8592V10.4205C39.8592 11.2557 39.9955 11.9482 40.2683 12.4979C40.541 13.0433 40.916 13.4524 41.3933 13.7251C41.8705 13.9936 42.416 14.1278 43.0296 14.1278C43.7711 14.1278 44.3847 13.9553 44.8705 13.6101Z" fill="#ff385c"/>
<path d="M52.1463 6.6044C51.9332 6.94957 51.8267 7.34375 51.8267 7.78693V14H50.3182V4.18181H51.7755V5.66477H51.8778C52.0568 5.17897 52.3807 4.7848 52.8494 4.48224C53.3182 4.17968 53.8466 4.02841 54.4346 4.02841C54.5454 4.02841 54.6839 4.03054 54.8501 4.0348C55.0163 4.03906 55.142 4.04545 55.2272 4.05397V5.58807C55.1761 5.57528 55.0589 5.5561 54.8757 5.53054C54.6967 5.50071 54.5071 5.48579 54.3068 5.48579C53.8295 5.48579 53.4034 5.58593 53.0284 5.78622C52.6576 5.98224 52.3636 6.25497 52.1463 6.6044Z" fill="#ff385c"/>
<path d="M61.712 14L65.3427 4.18181H63.7063L60.9961 12.0057H60.8938L58.1836 4.18181H56.5472L60.1779 14H61.712Z" fill="#ff385c"/>
<path fill-rule="evenodd" clip-rule="evenodd" d="M71.0987 14.2045C70.1527 14.2045 69.3366 13.9957 68.6505 13.5781C67.9687 13.1562 67.4425 12.5682 67.0717 11.8139C66.7052 11.0554 66.522 10.1733 66.522 9.16761C66.522 8.16193 66.7052 7.27557 67.0717 6.50852C67.4425 5.73721 67.9581 5.13636 68.6186 4.70596C69.2834 4.2713 70.0589 4.05397 70.9453 4.05397C71.4566 4.05397 71.9616 4.1392 72.4602 4.30966C72.9588 4.48011 73.4126 4.7571 73.8217 5.14062C74.2308 5.51988 74.5568 6.02272 74.7997 6.64914C75.0426 7.27557 75.164 8.04687 75.164 8.96307V9.60227H68.0339C68.0555 10.2555 68.1822 10.8159 68.414 11.2834C68.674 11.7947 69.0341 12.1847 69.4943 12.4531C69.9545 12.7173 70.4893 12.8494 71.0987 12.8494C71.495 12.8494 71.853 12.794 72.1726 12.6832C72.4964 12.5682 72.7755 12.3977 73.0099 12.1719C73.2443 11.9418 73.4254 11.6562 73.5532 11.3153L75.0106 11.7244C74.8572 12.2187 74.5994 12.6534 74.2372 13.0284C73.875 13.3991 73.4275 13.6889 72.8949 13.8977C72.3622 14.1023 71.7635 14.2045 71.0987 14.2045ZM68.3821 7.0071C68.1812 7.41246 68.0664 7.84286 68.0377 8.29829H73.63C73.63 7.74431 73.5191 7.25 73.2976 6.81534C73.0802 6.38068 72.7692 6.03764 72.3643 5.78622C71.9638 5.5348 71.4907 5.40909 70.9453 5.40909C70.3444 5.40909 69.8246 5.55824 69.3856 5.85653C68.951 6.15057 68.6165 6.53409 68.3821 7.0071Z" fill="#ff385c"/>
<path d="M77.4476 17.6179C77.6479 17.6605 77.8759 17.6818 78.1315 17.6818C78.5875 17.6818 78.9966 17.6008 79.3588 17.4389C79.7253 17.277 80.047 17.0277 80.324 16.691C80.601 16.3587 80.8333 15.9389 81.0208 15.4318L85.1884 4.18181H83.552L80.8418 12.0057H80.7395L78.0293 4.18181H76.3929L80.0236 14.0511L79.7423 14.8182C79.5591 15.3168 79.3567 15.6768 79.1351 15.8984C78.9178 16.1243 78.6685 16.25 78.3872 16.2756C78.106 16.3011 77.7821 16.267 77.4156 16.1733L77.0321 17.5028C77.1088 17.5412 77.2473 17.5795 77.4476 17.6179Z" fill="#ff385c"/>
</svg>
