<svg width="40" height="40" viewBox="0 0 40 40" fill="none" xmlns="http://www.w3.org/2000/svg">
<path d="M20.25 0.875C9.56589 0.875 0.875 9.56589 0.875 20.25C0.875 30.9341 9.56589 39.625 20.25 39.625C30.9341 39.625 39.625 30.9341 39.625 20.25C39.625 9.56589 30.9341 0.875 20.25 0.875ZM20.25 36.3325C15.158 36.3325 10.6195 33.9467 7.67145 30.2414C9.72495 27.5545 12.5895 25.6007 15.8406 24.6695C14.67 23.9259 13.706 22.8989 13.0379 21.6836C12.3699 20.4684 12.0193 19.1041 12.0188 17.7173C12.0188 13.1788 15.7114 9.48611 20.25 9.48611C24.7886 9.48611 28.4812 13.1788 28.4812 17.7173C28.48 19.1043 28.1291 20.4686 27.4609 21.684C26.7926 22.8995 25.8287 23.9267 24.6581 24.6708C27.9099 25.6013 30.775 27.5552 32.8286 30.2427C29.8805 33.9467 25.342 36.3325 20.25 36.3325Z" fill="#717171"/>
</svg>
